G04 #@! TF.GenerationSoftware,KiCad,Pcbnew,(5.0.2)-1*
G04 #@! TF.CreationDate,2019-05-06T18:27:32+02:00*
G04 #@! TF.ProjectId,VolcaModularMidi,566f6c63-614d-46f6-9475-6c61724d6964,rev?*
G04 #@! TF.SameCoordinates,Original*
G04 #@! TF.FileFunction,Legend,Top*
G04 #@! TF.FilePolarity,Positive*
%FSLAX46Y46*%
G04 Gerber Fmt 4.6, Leading zero omitted, Abs format (unit mm)*
G04 Created by KiCad (PCBNEW (5.0.2)-1) date 06/05/2019 18:27:32*
%MOMM*%
%LPD*%
G01*
G04 APERTURE LIST*
%ADD10C,0.150000*%
%ADD11C,0.120000*%
%ADD12C,0.304800*%
%ADD13C,0.200000*%
%ADD14C,0.100000*%
G04 APERTURE END LIST*
D10*
X117985714Y-123161904D02*
X118252380Y-123961904D01*
X118519047Y-123161904D01*
X118900000Y-123961904D02*
X118823809Y-123923809D01*
X118785714Y-123885714D01*
X118747619Y-123809523D01*
X118747619Y-123580952D01*
X118785714Y-123504761D01*
X118823809Y-123466666D01*
X118900000Y-123428571D01*
X119014285Y-123428571D01*
X119090476Y-123466666D01*
X119128571Y-123504761D01*
X119166666Y-123580952D01*
X119166666Y-123809523D01*
X119128571Y-123885714D01*
X119090476Y-123923809D01*
X119014285Y-123961904D01*
X118900000Y-123961904D01*
X119623809Y-123961904D02*
X119547619Y-123923809D01*
X119509523Y-123847619D01*
X119509523Y-123161904D01*
X120271428Y-123923809D02*
X120195238Y-123961904D01*
X120042857Y-123961904D01*
X119966666Y-123923809D01*
X119928571Y-123885714D01*
X119890476Y-123809523D01*
X119890476Y-123580952D01*
X119928571Y-123504761D01*
X119966666Y-123466666D01*
X120042857Y-123428571D01*
X120195238Y-123428571D01*
X120271428Y-123466666D01*
X120957142Y-123961904D02*
X120957142Y-123542857D01*
X120919047Y-123466666D01*
X120842857Y-123428571D01*
X120690476Y-123428571D01*
X120614285Y-123466666D01*
X120957142Y-123923809D02*
X120880952Y-123961904D01*
X120690476Y-123961904D01*
X120614285Y-123923809D01*
X120576190Y-123847619D01*
X120576190Y-123771428D01*
X120614285Y-123695238D01*
X120690476Y-123657142D01*
X120880952Y-123657142D01*
X120957142Y-123619047D01*
X121947619Y-123961904D02*
X121947619Y-123161904D01*
X122214285Y-123733333D01*
X122480952Y-123161904D01*
X122480952Y-123961904D01*
X122976190Y-123961904D02*
X122900000Y-123923809D01*
X122861904Y-123885714D01*
X122823809Y-123809523D01*
X122823809Y-123580952D01*
X122861904Y-123504761D01*
X122900000Y-123466666D01*
X122976190Y-123428571D01*
X123090476Y-123428571D01*
X123166666Y-123466666D01*
X123204761Y-123504761D01*
X123242857Y-123580952D01*
X123242857Y-123809523D01*
X123204761Y-123885714D01*
X123166666Y-123923809D01*
X123090476Y-123961904D01*
X122976190Y-123961904D01*
X123928571Y-123961904D02*
X123928571Y-123161904D01*
X123928571Y-123923809D02*
X123852380Y-123961904D01*
X123700000Y-123961904D01*
X123623809Y-123923809D01*
X123585714Y-123885714D01*
X123547619Y-123809523D01*
X123547619Y-123580952D01*
X123585714Y-123504761D01*
X123623809Y-123466666D01*
X123700000Y-123428571D01*
X123852380Y-123428571D01*
X123928571Y-123466666D01*
X124652380Y-123428571D02*
X124652380Y-123961904D01*
X124309523Y-123428571D02*
X124309523Y-123847619D01*
X124347619Y-123923809D01*
X124423809Y-123961904D01*
X124538095Y-123961904D01*
X124614285Y-123923809D01*
X124652380Y-123885714D01*
X125147619Y-123961904D02*
X125071428Y-123923809D01*
X125033333Y-123847619D01*
X125033333Y-123161904D01*
X125795238Y-123961904D02*
X125795238Y-123542857D01*
X125757142Y-123466666D01*
X125680952Y-123428571D01*
X125528571Y-123428571D01*
X125452380Y-123466666D01*
X125795238Y-123923809D02*
X125719047Y-123961904D01*
X125528571Y-123961904D01*
X125452380Y-123923809D01*
X125414285Y-123847619D01*
X125414285Y-123771428D01*
X125452380Y-123695238D01*
X125528571Y-123657142D01*
X125719047Y-123657142D01*
X125795238Y-123619047D01*
X126176190Y-123961904D02*
X126176190Y-123428571D01*
X126176190Y-123580952D02*
X126214285Y-123504761D01*
X126252380Y-123466666D01*
X126328571Y-123428571D01*
X126404761Y-123428571D01*
X127280952Y-123961904D02*
X127280952Y-123161904D01*
X127547619Y-123733333D01*
X127814285Y-123161904D01*
X127814285Y-123961904D01*
X128195238Y-123961904D02*
X128195238Y-123428571D01*
X128195238Y-123161904D02*
X128157142Y-123200000D01*
X128195238Y-123238095D01*
X128233333Y-123200000D01*
X128195238Y-123161904D01*
X128195238Y-123238095D01*
X128919047Y-123961904D02*
X128919047Y-123161904D01*
X128919047Y-123923809D02*
X128842857Y-123961904D01*
X128690476Y-123961904D01*
X128614285Y-123923809D01*
X128576190Y-123885714D01*
X128538095Y-123809523D01*
X128538095Y-123580952D01*
X128576190Y-123504761D01*
X128614285Y-123466666D01*
X128690476Y-123428571D01*
X128842857Y-123428571D01*
X128919047Y-123466666D01*
X129300000Y-123961904D02*
X129300000Y-123428571D01*
X129300000Y-123161904D02*
X129261904Y-123200000D01*
X129300000Y-123238095D01*
X129338095Y-123200000D01*
X129300000Y-123161904D01*
X129300000Y-123238095D01*
X130176190Y-123161904D02*
X130442857Y-123961904D01*
X130709523Y-123161904D01*
X131128571Y-123161904D02*
X131204761Y-123161904D01*
X131280952Y-123200000D01*
X131319047Y-123238095D01*
X131357142Y-123314285D01*
X131395238Y-123466666D01*
X131395238Y-123657142D01*
X131357142Y-123809523D01*
X131319047Y-123885714D01*
X131280952Y-123923809D01*
X131204761Y-123961904D01*
X131128571Y-123961904D01*
X131052380Y-123923809D01*
X131014285Y-123885714D01*
X130976190Y-123809523D01*
X130938095Y-123657142D01*
X130938095Y-123466666D01*
X130976190Y-123314285D01*
X131014285Y-123238095D01*
X131052380Y-123200000D01*
X131128571Y-123161904D01*
X131738095Y-123885714D02*
X131776190Y-123923809D01*
X131738095Y-123961904D01*
X131700000Y-123923809D01*
X131738095Y-123885714D01*
X131738095Y-123961904D01*
X132538095Y-123961904D02*
X132080952Y-123961904D01*
X132309523Y-123961904D02*
X132309523Y-123161904D01*
X132233333Y-123276190D01*
X132157142Y-123352380D01*
X132080952Y-123390476D01*
X119833333Y-107428571D02*
X119833333Y-108076190D01*
X119795238Y-108152380D01*
X119757142Y-108190476D01*
X119680952Y-108228571D01*
X119566666Y-108228571D01*
X119490476Y-108190476D01*
X119833333Y-107923809D02*
X119757142Y-107961904D01*
X119604761Y-107961904D01*
X119528571Y-107923809D01*
X119490476Y-107885714D01*
X119452380Y-107809523D01*
X119452380Y-107580952D01*
X119490476Y-107504761D01*
X119528571Y-107466666D01*
X119604761Y-107428571D01*
X119757142Y-107428571D01*
X119833333Y-107466666D01*
X120214285Y-107961904D02*
X120214285Y-107428571D01*
X120214285Y-107161904D02*
X120176190Y-107200000D01*
X120214285Y-107238095D01*
X120252380Y-107200000D01*
X120214285Y-107161904D01*
X120214285Y-107238095D01*
X120480952Y-107428571D02*
X120785714Y-107428571D01*
X120595238Y-107161904D02*
X120595238Y-107847619D01*
X120633333Y-107923809D01*
X120709523Y-107961904D01*
X120785714Y-107961904D01*
X121052380Y-107961904D02*
X121052380Y-107161904D01*
X121395238Y-107961904D02*
X121395238Y-107542857D01*
X121357142Y-107466666D01*
X121280952Y-107428571D01*
X121166666Y-107428571D01*
X121090476Y-107466666D01*
X121052380Y-107504761D01*
X122119047Y-107428571D02*
X122119047Y-107961904D01*
X121776190Y-107428571D02*
X121776190Y-107847619D01*
X121814285Y-107923809D01*
X121890476Y-107961904D01*
X122004761Y-107961904D01*
X122080952Y-107923809D01*
X122119047Y-107885714D01*
X122500000Y-107961904D02*
X122500000Y-107161904D01*
X122500000Y-107466666D02*
X122576190Y-107428571D01*
X122728571Y-107428571D01*
X122804761Y-107466666D01*
X122842857Y-107504761D01*
X122880952Y-107580952D01*
X122880952Y-107809523D01*
X122842857Y-107885714D01*
X122804761Y-107923809D01*
X122728571Y-107961904D01*
X122576190Y-107961904D01*
X122500000Y-107923809D01*
X123223809Y-107885714D02*
X123261904Y-107923809D01*
X123223809Y-107961904D01*
X123185714Y-107923809D01*
X123223809Y-107885714D01*
X123223809Y-107961904D01*
X123947619Y-107923809D02*
X123871428Y-107961904D01*
X123719047Y-107961904D01*
X123642857Y-107923809D01*
X123604761Y-107885714D01*
X123566666Y-107809523D01*
X123566666Y-107580952D01*
X123604761Y-107504761D01*
X123642857Y-107466666D01*
X123719047Y-107428571D01*
X123871428Y-107428571D01*
X123947619Y-107466666D01*
X124404761Y-107961904D02*
X124328571Y-107923809D01*
X124290476Y-107885714D01*
X124252380Y-107809523D01*
X124252380Y-107580952D01*
X124290476Y-107504761D01*
X124328571Y-107466666D01*
X124404761Y-107428571D01*
X124519047Y-107428571D01*
X124595238Y-107466666D01*
X124633333Y-107504761D01*
X124671428Y-107580952D01*
X124671428Y-107809523D01*
X124633333Y-107885714D01*
X124595238Y-107923809D01*
X124519047Y-107961904D01*
X124404761Y-107961904D01*
X125014285Y-107961904D02*
X125014285Y-107428571D01*
X125014285Y-107504761D02*
X125052380Y-107466666D01*
X125128571Y-107428571D01*
X125242857Y-107428571D01*
X125319047Y-107466666D01*
X125357142Y-107542857D01*
X125357142Y-107961904D01*
X125357142Y-107542857D02*
X125395238Y-107466666D01*
X125471428Y-107428571D01*
X125585714Y-107428571D01*
X125661904Y-107466666D01*
X125700000Y-107542857D01*
X125700000Y-107961904D01*
X126652380Y-107123809D02*
X125966666Y-108152380D01*
X126880952Y-107923809D02*
X126957142Y-107961904D01*
X127109523Y-107961904D01*
X127185714Y-107923809D01*
X127223809Y-107847619D01*
X127223809Y-107809523D01*
X127185714Y-107733333D01*
X127109523Y-107695238D01*
X126995238Y-107695238D01*
X126919047Y-107657142D01*
X126880952Y-107580952D01*
X126880952Y-107542857D01*
X126919047Y-107466666D01*
X126995238Y-107428571D01*
X127109523Y-107428571D01*
X127185714Y-107466666D01*
X127871428Y-107923809D02*
X127795238Y-107961904D01*
X127642857Y-107961904D01*
X127566666Y-107923809D01*
X127528571Y-107847619D01*
X127528571Y-107542857D01*
X127566666Y-107466666D01*
X127642857Y-107428571D01*
X127795238Y-107428571D01*
X127871428Y-107466666D01*
X127909523Y-107542857D01*
X127909523Y-107619047D01*
X127528571Y-107695238D01*
X128252380Y-107428571D02*
X128252380Y-107961904D01*
X128252380Y-107504761D02*
X128290476Y-107466666D01*
X128366666Y-107428571D01*
X128480952Y-107428571D01*
X128557142Y-107466666D01*
X128595238Y-107542857D01*
X128595238Y-107961904D01*
X128938095Y-107923809D02*
X129014285Y-107961904D01*
X129166666Y-107961904D01*
X129242857Y-107923809D01*
X129280952Y-107847619D01*
X129280952Y-107809523D01*
X129242857Y-107733333D01*
X129166666Y-107695238D01*
X129052380Y-107695238D01*
X128976190Y-107657142D01*
X128938095Y-107580952D01*
X128938095Y-107542857D01*
X128976190Y-107466666D01*
X129052380Y-107428571D01*
X129166666Y-107428571D01*
X129242857Y-107466666D01*
X129966666Y-107961904D02*
X129966666Y-107542857D01*
X129928571Y-107466666D01*
X129852380Y-107428571D01*
X129700000Y-107428571D01*
X129623809Y-107466666D01*
X129966666Y-107923809D02*
X129890476Y-107961904D01*
X129700000Y-107961904D01*
X129623809Y-107923809D01*
X129585714Y-107847619D01*
X129585714Y-107771428D01*
X129623809Y-107695238D01*
X129700000Y-107657142D01*
X129890476Y-107657142D01*
X129966666Y-107619047D01*
X130347619Y-107961904D02*
X130347619Y-107428571D01*
X130347619Y-107161904D02*
X130309523Y-107200000D01*
X130347619Y-107238095D01*
X130385714Y-107200000D01*
X130347619Y-107161904D01*
X130347619Y-107238095D01*
X130652380Y-107161904D02*
X131185714Y-107161904D01*
X130842857Y-107961904D01*
D11*
G04 #@! TO.C,J1*
X117531596Y-120763550D02*
X120191596Y-120763550D01*
X117531596Y-113083550D02*
X117531596Y-120763550D01*
X120191596Y-113083550D02*
X120191596Y-120763550D01*
X117531596Y-113083550D02*
X120191596Y-113083550D01*
X117531596Y-111813550D02*
X117531596Y-110483550D01*
X117531596Y-110483550D02*
X118861596Y-110483550D01*
G04 #@! TO.C,U1*
X127071596Y-111883550D02*
G75*
G02X125071596Y-111883550I-1000000J0D01*
G01*
X125071596Y-111883550D02*
X123421596Y-111883550D01*
X123421596Y-111883550D02*
X123421596Y-122163550D01*
X123421596Y-122163550D02*
X128721596Y-122163550D01*
X128721596Y-122163550D02*
X128721596Y-111883550D01*
X128721596Y-111883550D02*
X127071596Y-111883550D01*
D12*
G04 #@! TO.C,J2*
X147311896Y-124612770D02*
X147311896Y-105113190D01*
X147560816Y-106614330D02*
X147560816Y-124612770D01*
X147812276Y-126113910D02*
X147812276Y-106614330D01*
X133481596Y-124612770D02*
X146562596Y-124612770D01*
X131561356Y-122613550D02*
X131561356Y-108613550D01*
X133481596Y-106614330D02*
X146562596Y-106614330D01*
X147560816Y-105113190D02*
X147560816Y-106614330D01*
X147560816Y-106614330D02*
X148061196Y-106614330D01*
X148061196Y-106614330D02*
X148061196Y-126113910D01*
X147560816Y-126113910D02*
X147560816Y-124612770D01*
X147560816Y-124612770D02*
X147060436Y-124612770D01*
X147060436Y-124612770D02*
X147060436Y-105113190D01*
X146562596Y-106614330D02*
X146562596Y-107114710D01*
X146562596Y-124612770D02*
X146562596Y-124112390D01*
X147060436Y-107114710D02*
X146562596Y-107114710D01*
X146562596Y-124112390D02*
X147060436Y-124112390D01*
X148061196Y-126113910D02*
X147560816Y-126113910D01*
X147060436Y-105113190D02*
X147560816Y-105113190D01*
X133461356Y-124603550D02*
X133461356Y-122613550D01*
X133461356Y-108603550D02*
X133461356Y-106613550D01*
X133451596Y-122613790D02*
X131561596Y-122613790D01*
X133451596Y-108613790D02*
X131561596Y-108613790D01*
D11*
G04 #@! TO.C,D1*
X123951596Y-108793550D02*
X123951596Y-111033550D01*
X123951596Y-111033550D02*
X128191596Y-111033550D01*
X128191596Y-111033550D02*
X128191596Y-108793550D01*
X128191596Y-108793550D02*
X123951596Y-108793550D01*
X123301596Y-109913550D02*
X123951596Y-109913550D01*
X128841596Y-109913550D02*
X128191596Y-109913550D01*
X124671596Y-108793550D02*
X124671596Y-111033550D01*
X124791596Y-108793550D02*
X124791596Y-111033550D01*
X124551596Y-108793550D02*
X124551596Y-111033550D01*
G04 #@! TO.C,J1*
D10*
X118528262Y-108935930D02*
X118528262Y-109650216D01*
X118480643Y-109793073D01*
X118385405Y-109888311D01*
X118242548Y-109935930D01*
X118147310Y-109935930D01*
X119528262Y-109935930D02*
X118956834Y-109935930D01*
X119242548Y-109935930D02*
X119242548Y-108935930D01*
X119147310Y-109078788D01*
X119052072Y-109174026D01*
X118956834Y-109221645D01*
G04 #@! TO.C,U1*
X125309691Y-116452380D02*
X125309691Y-117261904D01*
X125357310Y-117357142D01*
X125404929Y-117404761D01*
X125500167Y-117452380D01*
X125690643Y-117452380D01*
X125785881Y-117404761D01*
X125833500Y-117357142D01*
X125881119Y-117261904D01*
X125881119Y-116452380D01*
X126881119Y-117452380D02*
X126309691Y-117452380D01*
X126595405Y-117452380D02*
X126595405Y-116452380D01*
X126500167Y-116595238D01*
X126404929Y-116690476D01*
X126309691Y-116738095D01*
X124338095Y-120652380D02*
X124147619Y-120652380D01*
X124052380Y-120700000D01*
X124004761Y-120747619D01*
X123909523Y-120890476D01*
X123861904Y-121080952D01*
X123861904Y-121461904D01*
X123909523Y-121557142D01*
X123957142Y-121604761D01*
X124052380Y-121652380D01*
X124242857Y-121652380D01*
X124338095Y-121604761D01*
X124385714Y-121557142D01*
X124433333Y-121461904D01*
X124433333Y-121223809D01*
X124385714Y-121128571D01*
X124338095Y-121080952D01*
X124242857Y-121033333D01*
X124052380Y-121033333D01*
X123957142Y-121080952D01*
X123909523Y-121128571D01*
X123861904Y-121223809D01*
X124861904Y-121652380D02*
X124861904Y-120652380D01*
X125433333Y-121652380D01*
X125433333Y-120652380D01*
X126433333Y-121652380D02*
X125861904Y-121652380D01*
X126147619Y-121652380D02*
X126147619Y-120652380D01*
X126052380Y-120795238D01*
X125957142Y-120890476D01*
X125861904Y-120938095D01*
X126766666Y-120652380D02*
X127385714Y-120652380D01*
X127052380Y-121033333D01*
X127195238Y-121033333D01*
X127290476Y-121080952D01*
X127338095Y-121128571D01*
X127385714Y-121223809D01*
X127385714Y-121461904D01*
X127338095Y-121557142D01*
X127290476Y-121604761D01*
X127195238Y-121652380D01*
X126909523Y-121652380D01*
X126814285Y-121604761D01*
X126766666Y-121557142D01*
X127861904Y-121652380D02*
X128052380Y-121652380D01*
X128147619Y-121604761D01*
X128195238Y-121557142D01*
X128290476Y-121414285D01*
X128338095Y-121223809D01*
X128338095Y-120842857D01*
X128290476Y-120747619D01*
X128242857Y-120700000D01*
X128147619Y-120652380D01*
X127957142Y-120652380D01*
X127861904Y-120700000D01*
X127814285Y-120747619D01*
X127766666Y-120842857D01*
X127766666Y-121080952D01*
X127814285Y-121176190D01*
X127861904Y-121223809D01*
X127957142Y-121271428D01*
X128147619Y-121271428D01*
X128242857Y-121223809D01*
X128290476Y-121176190D01*
X128338095Y-121080952D01*
G04 #@! TO.C,J2*
D12*
X141992000Y-114765428D02*
X141992000Y-115854000D01*
X141919428Y-116071714D01*
X141774285Y-116216857D01*
X141556571Y-116289428D01*
X141411428Y-116289428D01*
X142645142Y-114910571D02*
X142717714Y-114838000D01*
X142862857Y-114765428D01*
X143225714Y-114765428D01*
X143370857Y-114838000D01*
X143443428Y-114910571D01*
X143516000Y-115055714D01*
X143516000Y-115200857D01*
X143443428Y-115418571D01*
X142572571Y-116289428D01*
X143516000Y-116289428D01*
D13*
X138357142Y-123842857D02*
X138357142Y-122642857D01*
X138757142Y-123500000D01*
X139157142Y-122642857D01*
X139157142Y-123842857D01*
X139728571Y-123842857D02*
X139728571Y-122642857D01*
X140300000Y-123842857D02*
X140300000Y-122642857D01*
X140585714Y-122642857D01*
X140757142Y-122700000D01*
X140871428Y-122814285D01*
X140928571Y-122928571D01*
X140985714Y-123157142D01*
X140985714Y-123328571D01*
X140928571Y-123557142D01*
X140871428Y-123671428D01*
X140757142Y-123785714D01*
X140585714Y-123842857D01*
X140300000Y-123842857D01*
X141500000Y-123842857D02*
X141500000Y-122642857D01*
X141785714Y-123957142D02*
X142700000Y-123957142D01*
X142985714Y-123842857D02*
X142985714Y-122642857D01*
X143557142Y-123842857D02*
X143557142Y-122642857D01*
X144242857Y-123842857D01*
X144242857Y-122642857D01*
G04 #@! TO.C,D1*
D11*
X125809523Y-109961904D02*
X125809523Y-109161904D01*
X126000000Y-109161904D01*
X126114285Y-109200000D01*
X126190476Y-109276190D01*
X126228571Y-109352380D01*
X126266666Y-109504761D01*
X126266666Y-109619047D01*
X126228571Y-109771428D01*
X126190476Y-109847619D01*
X126114285Y-109923809D01*
X126000000Y-109961904D01*
X125809523Y-109961904D01*
X127028571Y-109961904D02*
X126571428Y-109961904D01*
X126800000Y-109961904D02*
X126800000Y-109161904D01*
X126723809Y-109276190D01*
X126647619Y-109352380D01*
X126571428Y-109390476D01*
D14*
X125378571Y-110726190D02*
X125092857Y-110726190D01*
X125235714Y-110726190D02*
X125235714Y-110226190D01*
X125188095Y-110297619D01*
X125140476Y-110345238D01*
X125092857Y-110369047D01*
X125592857Y-110726190D02*
X125592857Y-110226190D01*
X125878571Y-110726190D01*
X125878571Y-110226190D01*
X126330952Y-110392857D02*
X126330952Y-110726190D01*
X126211904Y-110202380D02*
X126092857Y-110559523D01*
X126402380Y-110559523D01*
X126854761Y-110726190D02*
X126569047Y-110726190D01*
X126711904Y-110726190D02*
X126711904Y-110226190D01*
X126664285Y-110297619D01*
X126616666Y-110345238D01*
X126569047Y-110369047D01*
X127283333Y-110392857D02*
X127283333Y-110726190D01*
X127164285Y-110202380D02*
X127045238Y-110559523D01*
X127354761Y-110559523D01*
X127616666Y-110440476D02*
X127569047Y-110416666D01*
X127545238Y-110392857D01*
X127521428Y-110345238D01*
X127521428Y-110321428D01*
X127545238Y-110273809D01*
X127569047Y-110250000D01*
X127616666Y-110226190D01*
X127711904Y-110226190D01*
X127759523Y-110250000D01*
X127783333Y-110273809D01*
X127807142Y-110321428D01*
X127807142Y-110345238D01*
X127783333Y-110392857D01*
X127759523Y-110416666D01*
X127711904Y-110440476D01*
X127616666Y-110440476D01*
X127569047Y-110464285D01*
X127545238Y-110488095D01*
X127521428Y-110535714D01*
X127521428Y-110630952D01*
X127545238Y-110678571D01*
X127569047Y-110702380D01*
X127616666Y-110726190D01*
X127711904Y-110726190D01*
X127759523Y-110702380D01*
X127783333Y-110678571D01*
X127807142Y-110630952D01*
X127807142Y-110535714D01*
X127783333Y-110488095D01*
X127759523Y-110464285D01*
X127711904Y-110440476D01*
G04 #@! TD*
M02*
