M48
INCH,TZ
T1C0.0157
T2C0.0315
T3C0.0394
T4C0.0550
%
G90
G05
T1
X49055Y-46083
X49803Y-45335
T2
X53331Y-46738
X56331Y-46738
X48134Y-44572
X48134Y-45572
X48134Y-46572
X48134Y-47572
X51134Y-44572
X51134Y-45572
X51134Y-46572
X51134Y-47572
X48134Y-43273
X51134Y-43273
X53331Y-44297
X56331Y-44297
T3
X46796Y-44021
X46796Y-45021
X46796Y-46021
X46796Y-47021
T4
X52387Y-43550
X52387Y-47484
X53371Y-45517
X53372Y-42565
X53372Y-48469
X57307Y-43548
X57307Y-47486
T0
M30
